<svg width="322" height="284" viewBox="0 0 322 284" fill="none" xmlns="http://www.w3.org/2000/svg">
<path d="M43.6519 167.969C45.8742 170.762 47.9119 173.445 49.8798 176.378C49.9142 176.437 49.9299 176.506 49.9246 176.574C49.9194 176.642 49.8936 176.706 49.8508 176.757C49.8081 176.808 49.7505 176.844 49.6863 176.858C49.6221 176.873 49.5545 176.866 49.493 176.839C47.8718 175.993 46.4524 174.773 45.3468 173.276C44.2411 171.78 43.4793 170.047 43.1216 168.215C43.1113 168.147 43.1224 168.078 43.1533 168.019C43.1841 167.959 43.233 167.912 43.2926 167.885C43.3523 167.857 43.4195 167.85 43.4842 167.865C43.5489 167.881 43.6078 167.917 43.6519 167.969Z" fill="white"/>
<path d="M316.743 193.866C332.212 189.364 287.996 170.056 278.923 150.376C278.923 150.376 278.723 149.802 278.224 149.914C277.726 150.026 277.841 150.64 277.841 150.64C280.583 164.705 292.476 175.435 302.775 184.42C240.118 166.611 226.541 109.111 200.495 38.5798C195.119 24.0208 186.864 29.3438 182.861 36.6316C175.443 54.9558 177.737 78.413 175.777 98.0677C173.967 122.37 175.122 151.066 170.395 174.932C168.798 182.987 163.915 184.655 160.038 175.868C152.668 159.203 146.388 137.888 140.169 120.71C136.709 110.93 133.776 100.671 128.95 91.2637C125.839 84.1723 117.781 83.2867 115.713 91.2803C111.28 114.645 123.058 185.266 104.195 204.823C79.7618 230.117 36.4427 187.059 26.8921 160.639C26.8307 160.47 26.708 160.331 26.5507 160.252C26.3933 160.173 26.2139 160.16 26.0512 160.217C25.8199 160.297 25.6316 160.47 25.5275 160.698C25.4234 160.926 25.4122 161.19 25.4963 161.431C35.9239 196.077 92.6142 244.814 114.521 202.14C126.167 179.423 118.764 136.584 122.166 106.293C122.349 104.655 123.131 99.5406 125.079 106.015C133.34 133.558 141.022 161.547 153.308 187.71C165.188 211.359 178.678 195.714 181.355 177.22C188.312 143.128 187.544 100.483 192.03 65.6363C192.742 60.0962 194.688 58.5816 196.978 64.7734C219.191 124.93 244.677 178.818 299.05 188.014C286.441 191.102 273.292 199.016 268.558 212.044C268.558 212.044 268.29 212.567 268.67 212.874C269.051 213.181 269.439 212.78 269.439 212.78C283.704 201.638 304.425 197.455 316.743 193.866ZM124.425 93.7366C124.496 93.6304 124.548 93.6122 124.425 93.7366ZM167.279 187.388C167.384 187.464 167.419 187.451 167.279 187.388Z" fill="white"/>
<path d="M53.6943 181.122C66.0832 191.311 83.5457 201.391 98.7999 194.246C98.8327 194.225 98.8722 194.217 98.9109 194.224C98.9496 194.232 98.9847 194.254 99.0093 194.286C99.0339 194.318 99.0463 194.358 99.0441 194.399C99.0419 194.439 99.0252 194.477 98.9973 194.505C86.3964 208.491 61.2876 196.688 53.4534 181.329C53.426 181.295 53.4125 181.251 53.4158 181.208C53.4191 181.165 53.4388 181.125 53.4708 181.098C53.5028 181.07 53.5443 181.057 53.5862 181.062C53.6281 181.067 53.667 181.088 53.6943 181.122Z" fill="white"/>
<path d="M163.96 99.7445C163.454 98.5532 163.204 97.2689 163.225 95.9818C163.247 94.6948 163.541 93.4359 164.085 92.2935C164.145 92.1773 164.236 92.0816 164.347 92.017C164.457 91.9523 164.584 91.9213 164.713 91.9274C164.842 91.9334 164.967 91.9763 165.076 92.0513C165.184 92.1262 165.271 92.2303 165.327 92.3519C165.833 93.5432 166.083 94.8274 166.062 96.1145C166.04 97.4016 165.746 98.6605 165.202 99.8029C165.142 99.919 165.051 100.015 164.94 100.079C164.829 100.144 164.703 100.175 164.574 100.169C164.445 100.163 164.319 100.12 164.211 100.045C164.103 99.9701 164.016 99.8661 163.96 99.7445Z" fill="white"/>
<path d="M164.859 83.5172C160.633 65.5751 159.736 34.6433 177.766 26.4312C177.832 26.4082 177.904 26.409 177.971 26.4334C178.038 26.4578 178.096 26.5044 178.135 26.5659C178.175 26.6274 178.193 26.7001 178.189 26.7726C178.184 26.8451 178.155 26.9132 178.108 26.966C164.564 39.9527 167.216 65.1141 165.503 83.4568C165.513 83.5454 165.489 83.6336 165.436 83.7019C165.382 83.7703 165.305 83.8132 165.219 83.8212C165.134 83.8292 165.048 83.8017 164.981 83.7447C164.913 83.6877 164.87 83.6058 164.859 83.5172Z" fill="white"/>
<path d="M249.598 135.484C254.02 142.671 259.529 149.094 265.906 154.496C265.953 154.533 265.985 154.586 265.996 154.646C266.007 154.705 265.996 154.766 265.966 154.816C265.936 154.867 265.888 154.903 265.832 154.918C265.776 154.933 265.716 154.925 265.664 154.897C257.854 151.606 251.583 144.029 249.217 135.708C249.092 135.435 249.457 135.247 249.598 135.484Z" fill="white"/>
</svg>
