<svg width="309" height="291" viewBox="0 0 309 291" fill="none" xmlns="http://www.w3.org/2000/svg">
<path d="M143.039 13C169.721 49.4752 203.092 47.096 204.888 47.9435C238.834 47.9942 258.129 26.901 263.534 16.3481" stroke="white" stroke-width="10" stroke-linecap="round"/>
<path d="M167.586 3C173.075 21.0727 195.395 19.6007 198.721 3.04646" stroke="white" stroke-width="5" stroke-linecap="round"/>
<path d="M217.594 4.33398C222.927 20.6441 243.802 19.3167 247.031 4.37791" stroke="white" stroke-width="5" stroke-linecap="round"/>
<path d="M13.6094 102.617C49.9331 129.505 81.0855 117.307 83.0526 117.582C115.477 107.534 127.625 81.6557 129.646 69.9729" stroke="white" stroke-width="10" stroke-linecap="round"/>
<path d="M34.0703 85.7686C44.6867 101.391 65.5587 93.346 63.8103 76.5518" stroke="white" stroke-width="5" stroke-linecap="round"/>
<path d="M82.2109 72.168C92.1538 86.1536 111.689 78.677 110.329 63.4539" stroke="white" stroke-width="5" stroke-linecap="round"/>
<path d="M136.945 167.611C179.623 182.478 205.737 161.566 207.697 161.243C235.665 142.005 239.566 113.685 238.02 101.93" stroke="white" stroke-width="10" stroke-linecap="round"/>
<path d="M151.469 145.438C166.251 157.196 183.786 143.307 177.121 127.793" stroke="white" stroke-width="5" stroke-linecap="round"/>
<path d="M193.383 118.135C207.036 128.53 223.463 115.581 217.636 101.452" stroke="white" stroke-width="5" stroke-linecap="round"/>
<path d="M110.695 244.243C65.5276 245.742 46.8155 218.01 45.0403 217.119C24.0608 190.432 28.7602 162.233 33.7323 151.47" stroke="white" stroke-width="10" stroke-linecap="round"/>
<path d="M103.422 218.754C85.8112 225.582 73.2016 207.106 84.1793 194.277" stroke="white" stroke-width="5" stroke-linecap="round"/>
<path d="M71.5234 180.22C55.3966 186.083 43.5643 168.834 53.3304 157.078" stroke="white" stroke-width="5" stroke-linecap="round"/>
<path d="M182.039 211.202C195.141 254.454 227.417 263.257 228.832 264.651C260.846 275.937 286.037 262.421 294.63 254.253" stroke="white" stroke-width="10" stroke-linecap="round"/>
<path d="M208.516 209.893C207.712 228.763 229.261 234.764 237.88 220.244" stroke="white" stroke-width="5" stroke-linecap="round"/>
<path d="M255.258 227.706C254.89 244.862 275.028 250.52 283.02 237.493" stroke="white" stroke-width="5" stroke-linecap="round"/>
</svg>
