<svg width="40" height="35" viewBox="0 0 40 35" fill="none" xmlns="http://www.w3.org/2000/svg">
<path d="M34.7303 4.68247C33.879 3.83081 32.8683 3.15521 31.7559 2.69428C30.6434 2.23334 29.4511 1.99609 28.2469 1.99609C27.0428 1.99609 25.8505 2.23334 24.738 2.69428C23.6256 3.15521 22.6149 3.83081 21.7636 4.68247L19.9969 6.44914L18.2303 4.68247C16.5108 2.96298 14.1787 1.99699 11.7469 1.99699C9.31522 1.99699 6.9831 2.96298 5.26361 4.68247C3.54412 6.40196 2.57813 8.73408 2.57812 11.1658C2.57812 13.5975 3.54412 15.9296 5.26361 17.6491L7.03028 19.4158L19.9969 32.3825L32.9636 19.4158L34.7303 17.6491C35.5819 16.7979 36.2575 15.7872 36.7185 14.6747C37.1794 13.5623 37.4167 12.3699 37.4167 11.1658C37.4167 9.96166 37.1794 8.76931 36.7185 7.65688C36.2575 6.54445 35.5819 5.53373 34.7303 4.68247V4.68247Z" stroke="#BB1F2F" stroke-width="4" stroke-linecap="round" stroke-linejoin="round"/>
</svg>
