<svg width="1920" height="932" viewBox="0 0 1920 932" fill="none" xmlns="http://www.w3.org/2000/svg">
<path d="M-26.8047 29.6595C366.778 210.981 501.087 410.944 549.762 562.64C604.081 731.941 576.068 916.978 634.704 928.469C672.25 935.83 718.45 866.735 804.583 715.27C1065.78 255.973 1071.69 134.001 1182.98 102.344C1338.87 57.9645 1434.97 266.746 1674.6 262.246C1850.59 258.933 1993.01 142.686 2089 39.3558" stroke="#FBD336" stroke-opacity="0.12" stroke-width="5" stroke-miterlimit="10"/>
<path d="M-36.25 47.888C346.251 225.305 488.274 419.675 540.81 561.846C599.516 720.727 571.791 896.206 629.817 904.505C667.123 909.845 712.454 841.931 795.654 695.657C1048.5 251.197 1056.35 127.706 1166.77 97.6123C1323.57 55.4806 1415.48 279.364 1657.65 282.412C1662.93 282.479 1668.12 282.479 1673.33 282.346C1845.15 277.846 1989.59 161.544 2087.64 58.8489" stroke="#FBD336" stroke-opacity="0.12" stroke-width="5" stroke-miterlimit="10"/>
<path d="M-45.6719 66.1155C325.717 239.612 475.344 428.057 531.875 561.04C594.882 709.269 567.549 875.41 624.948 880.529C662.025 883.842 706.493 817.105 786.736 676.027C1031.18 246.426 1040.91 121.019 1150.6 92.88C1308.16 52.4599 1396.07 292.092 1640.73 302.584C1646.1 302.816 1651.45 303.047 1656.8 303.02C1831.46 302.114 1983.42 183.411 2086.3 78.3464" stroke="#FBD336" stroke-opacity="0.12" stroke-width="5" stroke-miterlimit="10"/>
<path d="M-55.1172 84.3419C305.214 253.968 462.209 436.035 522.922 560.232C590.053 697.566 563.313 854.597 620.055 856.546C656.92 857.816 700.474 792.283 777.801 656.401C1013.88 241.61 1025.53 114.552 1134.42 88.1464C1292.82 49.7363 1376.68 304.912 1623.8 322.754C1629.29 323.151 1634.77 323.532 1640.23 323.698C1817.72 329.032 1977.19 205.282 2084.91 97.8539" stroke="#FBD336" stroke-opacity="0.12" stroke-width="5" stroke-miterlimit="10"/>
<path d="M-64.5547 102.57C284.694 268.275 448.817 443.589 513.972 559.426C584.957 685.628 559.109 833.763 615.176 832.565C651.836 831.786 694.486 767.457 768.88 636.771C996.579 236.817 1010.16 108.103 1118.24 83.4199C1277.52 47.0418 1357.32 317.828 1606.88 342.947C1612.48 343.499 1618.09 344.052 1623.72 344.394C1804.02 354.565 1971.02 227.165 2083.6 117.352" stroke="#FBD336" stroke-opacity="0.12" stroke-width="5" stroke-miterlimit="10"/>
<path d="M-74 120.798C264.173 282.588 435.078 450.685 505.031 558.615C579.466 673.469 554.897 812.913 610.3 808.589C646.767 805.74 688.496 742.636 759.957 617.141C979.29 232.024 994.807 101.675 1102.07 78.6879C1262.22 44.3695 1337.96 330.833 1589.96 363.102C1595.69 363.837 1601.41 364.582 1607.18 365.057C1790.3 380.021 1964.85 249.021 2082.25 136.833" stroke="#FBD336" stroke-opacity="0.12" stroke-width="5" stroke-miterlimit="10"/>
<path d="M-83.4219 139.025C243.663 296.917 420.91 457.327 496.084 557.808C573.423 661.189 550.737 792.035 605.419 784.608C641.704 779.682 682.506 717.793 751.028 597.516C961.99 227.237 979.46 95.2642 1085.89 73.9608C1246.95 41.7187 1318.61 343.914 1573.03 383.273C1578.9 384.179 1584.73 385.107 1590.63 385.731C1776.55 405.455 1958.65 270.876 2080.89 156.33" stroke="#FBD336" stroke-opacity="0.12" stroke-width="5" stroke-miterlimit="10"/>
<path d="M-92.8672 157.253C223.136 311.241 388.778 479.729 487.131 557.002C546.701 661.404 546.554 771.129 600.532 760.632C636.635 753.608 676.51 692.989 742.099 577.858C944.683 222.416 964.107 88.8479 1069.7 69.2011C1231.67 39.0683 1299.24 357.045 1556.1 403.417C1562.07 404.494 1568.05 405.598 1574.1 406.382C1762.82 430.817 1952.49 292.731 2079.55 175.801" stroke="#FBD336" stroke-opacity="0.12" stroke-width="5" stroke-miterlimit="10"/>
<path d="M-102.305 175.482C202.622 325.566 372.741 489.565 478.187 556.197C538.507 651.328 542.379 750.197 595.653 736.652C631.58 727.518 670.517 668.181 733.172 558.257C927.355 217.652 948.774 82.5045 1053.53 64.4977C1216.41 36.5019 1279.88 370.304 1539.17 423.617C1545.26 424.871 1551.36 426.152 1557.56 427.091C1749.09 456.196 1946.28 314.627 2078.21 195.327" stroke="#FBD336" stroke-opacity="0.12" stroke-width="5" stroke-miterlimit="10"/>
<path d="M-111.75 193.708C182.095 339.888 356.69 499.387 469.228 555.389C530.299 641.254 538.196 729.24 590.766 712.674C626.511 701.415 664.521 643.353 724.237 538.631C910.078 212.841 933.438 76.1582 1037.34 59.7749C1201.15 33.9381 1260.49 383.599 1522.24 443.798C1528.45 445.223 1534.68 446.675 1541.02 447.774C1735.36 481.524 1940.08 336.503 2076.85 214.829" stroke="#FBD336" stroke-opacity="0.12" stroke-width="5" stroke-miterlimit="10"/>
<path d="M-121.18 211.936C161.589 354.212 340.655 509.216 460.286 554.579C522.108 631.172 534.017 708.252 585.883 688.693C621.446 675.286 658.535 618.522 715.317 519.018C892.781 208.082 918.119 69.8421 1021.17 55.0546C1185.9 31.4155 1241.1 396.963 1505.32 463.981C1511.65 465.588 1518.01 467.201 1524.48 468.465C1721.65 506.826 1933.9 358.381 2075.51 234.338" stroke="#FBD336" stroke-opacity="0.12" stroke-width="5" stroke-miterlimit="10"/>
<path d="M-130.625 230.17C141.05 368.531 324.621 519.046 451.339 553.751C513.912 621.073 529.822 687.231 580.99 664.691C616.36 649.119 652.533 593.679 706.376 499.35C875.469 203.251 902.783 63.4981 1004.98 50.2898C1170.66 28.8705 1221.68 410.315 1488.39 484.115C1494.84 485.898 1501.3 487.682 1507.93 489.084C1707.93 532.033 1927.7 380.199 2074.15 253.781" stroke="#FBD336" stroke-opacity="0.12" stroke-width="5" stroke-miterlimit="10"/>
<path d="M-140.062 248.397C120.537 382.855 308.56 528.875 442.388 552.967C505.712 611.018 525.606 666.225 576.117 640.737C611.281 622.989 646.545 568.875 697.455 479.741C858.199 198.48 887.474 57.2307 988.801 45.5795C1155.41 26.4242 1202.23 423.799 1471.47 504.308C1478.03 506.274 1484.64 508.217 1491.41 509.802C1694.25 557.29 1921.53 402.126 2072.82 273.312" stroke="#FBD336" stroke-opacity="0.12" stroke-width="5" stroke-miterlimit="10"/>
<path d="M-149.484 266.624C100.015 397.177 292.515 538.697 433.442 552.148C497.511 600.928 521.376 645.186 571.236 616.754C606.189 596.82 640.555 544.053 688.532 460.116C840.881 193.686 872.156 50.9457 972.621 40.8462C1140.18 23.9824 1182.77 437.316 1454.54 524.478C1461.22 526.626 1467.96 528.736 1474.86 530.481C1680.54 582.519 1915.33 423.975 2071.49 292.809" stroke="#FBD336" stroke-opacity="0.12" stroke-width="5" stroke-miterlimit="10"/>
<path d="M-158.93 284.853C79.4996 411.503 276.481 548.527 424.501 551.349C489.321 590.858 517.14 624.144 566.361 592.763C601.085 570.637 634.571 519.223 679.585 440.476C823.563 188.883 856.82 44.7019 956.423 36.1099C1124.93 21.5708 1163.26 450.802 1437.59 544.646C1444.4 546.97 1451.26 549.24 1458.3 551.15C1666.85 607.705 1909.12 445.832 2070.09 312.297" stroke="#FBD336" stroke-opacity="0.12" stroke-width="5" stroke-miterlimit="10"/>
<path d="M-168.367 303.079C58.9801 425.824 260.438 558.354 415.55 550.541C481.127 580.779 512.877 603.087 561.481 568.796C595.965 544.467 628.577 494.406 670.688 420.855C806.288 184.105 841.528 38.4824 940.274 31.3868C1109.72 19.2111 1143.77 464.389 1420.69 564.798C1427.62 567.305 1434.61 569.735 1441.81 571.806C1653.2 632.888 1902.96 467.713 2068.77 331.826" stroke="#FBD336" stroke-opacity="0.12" stroke-width="5" stroke-miterlimit="10"/>
<path d="M-177.812 321.307C38.4587 440.143 244.387 568.161 406.598 549.735C472.89 570.718 508.588 582.021 556.594 544.815C590.82 518.282 622.582 469.585 661.753 401.247C788.981 179.334 826.205 32.2925 924.088 26.6823C1094.48 16.9086 1124.23 478.006 1403.76 585.02C1410.8 587.714 1417.92 590.298 1425.24 592.535C1639.54 658.046 1896.78 489.58 2067.41 351.301" stroke="#FBD336" stroke-opacity="0.12" stroke-width="5" stroke-miterlimit="10"/>
<path d="M-187.25 339.557C17.9393 454.489 228.344 578.029 397.647 548.946C464.72 560.646 504.29 560.983 551.704 520.861C585.671 492.148 616.588 444.787 652.82 381.622C771.677 174.552 810.883 26.1028 907.904 21.9503C1079.25 14.5952 1104.66 491.607 1386.84 605.158C1393.99 608.041 1401.25 610.779 1408.7 613.181C1625.9 683.182 1890.57 511.441 2066.07 370.772" stroke="#FBD336" stroke-opacity="0.12" stroke-width="5" stroke-miterlimit="10"/>
<path d="M-196.688 357.779C-2.58608 468.768 210.071 518.504 388.703 548.117C455.546 559.2 499.98 539.895 546.824 496.858C580.516 465.935 610.6 419.938 643.899 361.97C754.378 169.726 795.561 19.9071 891.726 17.1959C1064 12.3422 1085.07 505.257 1369.91 625.346C1377.17 628.405 1384.58 631.304 1392.16 633.872C1612.26 708.323 1884.36 533.319 2064.72 390.297" stroke="#FBD336" stroke-opacity="0.12" stroke-width="5" stroke-miterlimit="10"/>
<path d="M-206.125 376C-23.0879 483.124 192.215 582.12 379.758 547.322C447.411 534.765 495.652 518.845 541.945 472.887C575.349 439.756 604.606 395.128 634.971 342.35C737.085 164.944 780.234 13.7663 875.548 12.4797C1048.75 10.1385 1065.45 518.934 1352.98 645.528C1360.37 648.775 1367.9 651.812 1375.62 654.556C1598.81 733.027 1878.19 555.19 2063.39 409.794" stroke="#FBD336" stroke-opacity="0.12" stroke-width="5" stroke-miterlimit="10"/>
<path d="M-215.562 394.224C-43.6191 497.444 177.621 599.769 370.813 546.511C439.341 527.615 491.313 497.781 537.066 448.907C570.171 413.567 598.618 370.297 626.044 322.721C719.786 160.146 764.906 7.24058 859.37 7.74307C1033.5 8.67074 1045.61 533.005 1336.06 665.695C1343.55 669.14 1351.22 672.319 1359.08 675.231C1585.13 758.341 1872 577.063 2062.02 429.298" stroke="#FBD336" stroke-opacity="0.12" stroke-width="5" stroke-miterlimit="10"/>
<path d="M-225 412.446C-64.1386 511.756 164.171 617.307 361.863 545.694C659.885 437.719 685.668 0.470705 843.197 3.01076C1022.77 5.90421 1026.45 574.739 1342.54 695.905C1571.44 783.647 1865.84 598.93 2060.68 448.785" stroke="#FBD336" stroke-opacity="0.12" stroke-width="5" stroke-miterlimit="10"/>
</svg>
