<svg width="1920" height="932" viewBox="0 0 1920 932" fill="none" xmlns="http://www.w3.org/2000/svg">
<path d="M-79.8047 902.341C313.778 721.019 448.087 521.056 496.762 369.36C551.081 200.059 523.068 15.0218 581.704 3.53082C619.25 -3.82982 665.45 65.2652 751.583 216.73C1012.78 676.027 1018.69 797.999 1129.98 829.656C1285.87 874.035 1381.97 665.254 1621.6 669.754C1797.59 673.067 1940.01 789.314 2036 892.644" stroke="#045295" stroke-opacity="0.1" stroke-width="5" stroke-miterlimit="10"/>
<path d="M-89.2539 884.112C293.247 706.695 435.271 512.325 487.806 370.154C546.512 211.273 518.787 35.7942 576.813 27.4948C614.119 22.1552 659.45 90.0685 742.65 236.343C995.499 680.803 1003.34 804.294 1113.77 834.388C1270.56 876.519 1362.48 652.636 1604.64 649.588C1609.92 649.521 1615.12 649.521 1620.32 649.654C1792.14 654.154 1936.59 770.456 2034.63 873.151" stroke="#045295" stroke-opacity="0.1" stroke-width="5" stroke-miterlimit="10"/>
<path d="M-98.6758 865.884C272.713 692.388 422.34 503.943 478.871 370.96C541.878 222.731 514.545 56.5897 571.944 51.471C609.021 48.1579 653.489 114.895 733.732 255.973C978.181 685.574 987.907 810.981 1097.6 839.12C1255.16 879.54 1343.07 639.908 1587.73 629.416C1593.1 629.184 1598.45 628.953 1603.8 628.98C1778.46 629.886 1930.41 748.589 2033.3 853.654" stroke="#045295" stroke-opacity="0.1" stroke-width="5" stroke-miterlimit="10"/>
<path d="M-108.117 847.658C252.214 678.032 409.209 495.965 469.922 371.768C537.053 234.434 510.313 77.4029 567.055 75.4537C603.92 74.1836 647.474 139.717 724.801 275.599C960.878 690.39 972.529 817.448 1081.42 843.854C1239.82 882.264 1323.68 627.088 1570.8 609.246C1576.29 608.849 1581.77 608.468 1587.23 608.302C1764.72 602.968 1924.19 726.718 2031.91 834.146" stroke="#045295" stroke-opacity="0.1" stroke-width="5" stroke-miterlimit="10"/>
<path d="M-117.555 829.43C231.694 663.725 395.817 488.411 460.972 372.574C531.957 246.372 506.109 98.2367 562.176 99.435C598.836 100.214 641.486 164.543 715.88 295.229C943.579 695.183 957.16 823.897 1065.24 848.58C1224.52 884.958 1304.32 614.172 1553.88 589.053C1559.48 588.501 1565.09 587.948 1570.72 587.606C1751.02 577.435 1918.02 704.835 2030.6 814.648" stroke="#045295" stroke-opacity="0.1" stroke-width="5" stroke-miterlimit="10"/>
<path d="M-126.996 811.202C211.177 649.412 382.082 481.315 452.035 373.385C526.47 258.531 501.9 119.087 557.304 123.411C593.771 126.26 635.5 189.364 706.961 314.859C926.294 699.976 941.811 830.325 1049.07 853.312C1209.23 887.63 1284.96 601.167 1536.96 568.898C1542.69 568.163 1548.42 567.418 1554.19 566.943C1737.3 551.979 1911.86 682.979 2029.26 795.167" stroke="#045295" stroke-opacity="0.1" stroke-width="5" stroke-miterlimit="10"/>
<path d="M-136.426 792.975C190.659 635.083 367.906 474.673 443.08 374.192C520.419 270.811 497.733 139.965 552.416 147.392C588.7 152.318 629.502 214.207 698.024 334.484C908.986 704.763 926.456 836.736 1032.88 858.039C1193.95 890.281 1265.6 588.086 1520.03 548.727C1525.9 547.821 1531.73 546.893 1537.63 546.269C1723.54 526.545 1905.65 661.124 2027.89 775.67" stroke="#045295" stroke-opacity="0.1" stroke-width="5" stroke-miterlimit="10"/>
<path d="M-145.867 774.747C170.136 620.759 335.778 452.271 434.131 374.998C493.701 270.596 493.554 160.871 547.532 171.368C583.635 178.392 623.51 239.011 689.099 354.142C891.683 709.584 911.107 843.152 1016.7 862.799C1178.67 892.932 1246.24 574.955 1503.1 528.583C1509.07 527.506 1515.05 526.402 1521.1 525.618C1709.82 501.183 1899.49 639.269 2026.55 756.199" stroke="#045295" stroke-opacity="0.1" stroke-width="5" stroke-miterlimit="10"/>
<path d="M-155.305 756.518C149.622 606.434 319.741 442.435 425.187 375.803C485.507 280.672 489.379 181.803 542.653 195.348C578.58 204.482 617.517 263.819 680.172 373.743C874.355 714.348 895.774 849.496 1000.53 867.502C1163.41 895.498 1226.88 561.696 1486.17 508.383C1492.26 507.129 1498.36 505.848 1504.56 504.909C1696.09 475.804 1893.28 617.373 2025.21 736.673" stroke="#045295" stroke-opacity="0.1" stroke-width="5" stroke-miterlimit="10"/>
<path d="M-164.746 738.292C129.099 592.112 303.694 432.613 416.232 376.611C477.303 290.746 485.2 202.76 537.77 219.326C573.515 230.585 611.525 288.647 671.24 393.369C857.082 719.159 880.442 855.842 984.345 872.225C1148.15 898.062 1207.49 548.401 1469.25 488.202C1475.45 486.777 1481.68 485.325 1488.02 484.226C1682.36 450.476 1887.09 595.497 2023.85 717.171" stroke="#045295" stroke-opacity="0.1" stroke-width="5" stroke-miterlimit="10"/>
<path d="M-174.18 720.064C108.589 577.788 287.655 422.784 407.286 377.421C469.108 300.828 481.017 223.748 532.883 243.307C568.446 256.714 605.535 313.478 662.317 412.982C839.781 723.918 865.119 862.158 968.165 876.945C1132.9 900.585 1188.1 535.037 1452.32 468.019C1458.65 466.412 1465.01 464.799 1471.48 463.535C1668.65 425.174 1880.9 573.619 2022.51 697.662" stroke="#045295" stroke-opacity="0.1" stroke-width="5" stroke-miterlimit="10"/>
<path d="M-183.621 701.83C88.054 563.469 271.625 412.954 398.343 378.249C460.916 310.927 476.826 244.769 527.994 267.309C563.364 282.881 599.537 338.321 653.38 432.65C822.473 728.749 849.787 868.502 951.989 881.71C1117.66 903.13 1168.68 521.685 1435.39 447.885C1441.85 446.102 1448.3 444.318 1454.94 442.916C1654.93 399.967 1874.71 551.801 2021.15 678.219" stroke="#045295" stroke-opacity="0.1" stroke-width="5" stroke-miterlimit="10"/>
<path d="M-193.059 683.603C67.5404 549.145 255.564 403.125 389.392 379.033C452.716 320.982 472.61 265.775 523.121 291.263C558.285 309.011 593.549 363.125 644.459 452.259C805.203 733.52 834.477 874.769 935.805 886.42C1102.42 905.576 1149.24 508.201 1418.47 427.692C1425.04 425.726 1431.64 423.783 1438.42 422.198C1641.25 374.71 1868.54 529.874 2019.82 658.688" stroke="#045295" stroke-opacity="0.1" stroke-width="5" stroke-miterlimit="10"/>
<path d="M-202.48 665.376C47.019 534.823 239.519 393.303 380.446 379.852C444.514 331.072 468.38 286.814 518.24 315.246C553.193 335.18 587.559 387.947 635.536 471.884C787.885 738.314 819.16 881.054 919.625 891.154C1087.19 908.018 1129.77 494.684 1401.54 407.522C1408.23 405.374 1414.96 403.264 1421.86 401.519C1627.54 349.481 1862.33 508.025 2018.49 639.191" stroke="#045295" stroke-opacity="0.1" stroke-width="5" stroke-miterlimit="10"/>
<path d="M-211.93 647.147C26.4996 520.497 223.481 383.473 371.501 380.651C436.321 341.142 464.14 307.856 513.361 339.237C548.085 361.363 581.571 412.777 626.585 491.524C770.563 743.117 803.82 887.298 903.423 895.89C1071.93 910.429 1110.26 481.198 1384.59 387.354C1391.4 385.03 1398.26 382.76 1405.3 380.85C1613.85 324.295 1856.12 486.168 2017.09 619.703" stroke="#045295" stroke-opacity="0.1" stroke-width="5" stroke-miterlimit="10"/>
<path d="M-221.367 628.921C5.98011 506.176 207.438 373.646 362.55 381.459C428.127 351.221 459.877 328.913 508.481 363.204C542.965 387.533 575.577 437.594 617.688 511.145C753.288 747.895 788.528 893.518 887.274 900.613C1056.72 912.789 1090.77 467.611 1367.69 367.202C1374.62 364.695 1381.61 362.265 1388.81 360.194C1600.2 299.112 1849.96 464.287 2015.77 600.174" stroke="#045295" stroke-opacity="0.1" stroke-width="5" stroke-miterlimit="10"/>
<path d="M-230.809 610.693C-14.5374 491.857 191.391 363.839 353.602 382.265C419.894 361.282 455.592 349.979 503.598 387.185C537.824 413.718 569.586 462.415 608.757 530.753C735.985 752.666 773.208 899.708 871.092 905.318C1041.49 915.091 1071.23 453.994 1350.77 346.98C1357.81 344.286 1364.93 341.702 1372.24 339.465C1586.54 273.954 1843.78 442.42 2014.42 580.699" stroke="#045295" stroke-opacity="0.1" stroke-width="5" stroke-miterlimit="10"/>
<path d="M-240.246 592.443C-35.0568 477.511 175.348 353.971 344.651 383.054C411.724 371.354 451.294 371.017 498.707 411.139C532.675 439.852 563.592 487.213 599.824 550.378C718.68 757.448 757.887 905.897 854.908 910.05C1026.25 917.405 1051.67 440.393 1333.84 326.842C1340.99 323.959 1348.25 321.221 1355.7 318.819C1572.91 248.818 1837.58 420.559 2013.07 561.228" stroke="#045295" stroke-opacity="0.1" stroke-width="5" stroke-miterlimit="10"/>
<path d="M-249.684 574.221C-55.5822 463.232 157.075 413.496 335.707 383.883C402.55 372.8 446.984 392.105 493.828 435.142C527.52 466.065 557.604 512.062 590.902 570.03C701.382 762.274 742.565 912.093 838.73 914.804C1011.01 919.658 1032.07 426.743 1316.91 306.654C1324.18 303.595 1331.58 300.696 1339.16 298.128C1559.27 223.677 1831.37 398.681 2011.72 541.703" stroke="#045295" stroke-opacity="0.1" stroke-width="5" stroke-miterlimit="10"/>
<path d="M-259.121 556C-76.084 448.876 139.219 349.88 326.762 384.678C394.415 397.235 442.656 413.155 488.949 459.113C522.353 492.244 551.61 536.872 581.975 589.65C684.089 767.056 727.237 918.234 822.552 919.52C995.756 921.862 1012.46 413.066 1299.99 286.472C1307.37 283.225 1314.9 280.188 1322.62 277.444C1545.81 198.973 1825.2 376.81 2010.39 522.206" stroke="#045295" stroke-opacity="0.1" stroke-width="5" stroke-miterlimit="10"/>
<path d="M-268.562 537.776C-96.6191 434.556 124.621 332.231 317.813 385.489C386.341 404.385 438.313 434.219 484.066 483.093C517.171 518.433 545.618 561.703 573.044 609.279C666.786 771.854 711.906 924.759 806.37 924.257C980.495 923.329 992.61 398.995 1283.06 266.305C1290.55 262.86 1298.22 259.681 1306.08 256.769C1532.13 173.659 1819 354.937 2009.02 502.702" stroke="#045295" stroke-opacity="0.1" stroke-width="5" stroke-miterlimit="10"/>
<path d="M-278 519.554C-117.139 420.244 111.171 314.693 308.863 386.306C606.885 494.281 632.668 931.529 790.197 928.989C969.773 926.096 973.446 357.261 1289.54 236.095C1518.44 148.353 1812.84 333.07 2007.68 483.215" stroke="#045295" stroke-opacity="0.1" stroke-width="5" stroke-miterlimit="10"/>
</svg>
