<svg width="1920" height="1877" viewBox="0 0 1920 1877" fill="none" xmlns="http://www.w3.org/2000/svg">
<path d="M1888.9 627.49C1801.42 391.673 1448.12 310.318 1210.03 368.245C935.661 435.029 880.572 670.678 656.353 654.324C451.756 639.471 393.077 435.504 245.103 435.207C109.112 434.941 -66.5427 606.727 -261.356 1302.17" stroke="#125B9B" stroke-opacity="0.2" stroke-width="5" stroke-miterlimit="10"/>
<path d="M-239.019 1325.88C-46.2461 640.309 128.418 463.673 264.969 457.981C366.206 453.905 426.636 545.616 520.574 606.583C567.741 638.24 621.154 657.129 676.015 661.557C855.748 676.2 928.628 535.737 1096.09 444.214C1138.74 420.737 1183.99 402.79 1230.9 390.744C1469.07 328.692 1814.1 390.307 1904.46 616.146" stroke="#125B9B" stroke-opacity="0.2" stroke-width="5" stroke-miterlimit="10"/>
<path d="M-216.654 1349.5C-25.9115 673.839 147.655 492.42 284.503 480.875C385.099 472.398 446.652 558.817 539.831 615.764C587.573 645.76 640.746 663.926 695.295 668.877C872.816 684.956 948.334 556.163 1116.96 466.846C1159.79 444.044 1204.85 426.121 1251.44 413.364C1489.91 347.976 1826.44 389.02 1919.68 604.88" stroke="#125B9B" stroke-opacity="0.2" stroke-width="5" stroke-miterlimit="10"/>
<path d="M-194.346 1373.04C-5.68264 707.438 166.913 521.252 304.184 503.693C404.236 490.88 466.737 571.959 559.284 624.9C607.511 653.233 660.413 670.7 714.617 676.189C890.079 693.668 967.875 576.583 1137.87 489.47C1180.87 467.228 1225.8 449.272 1272.1 435.823C1510.73 366.645 1838.87 387.58 1934.99 593.463" stroke="#125B9B" stroke-opacity="0.2" stroke-width="5" stroke-miterlimit="10"/>
<path d="M-171.998 1396.79C14.6061 740.978 186.094 550.145 323.906 526.544C423.306 509.465 486.95 585.159 578.797 633.978C627.543 660.659 680.265 677.44 734.202 683.44C907.607 702.318 987.807 596.958 1159.23 511.987C1202.34 490.443 1247.05 472.533 1292.95 458.415C1531.78 385.439 1851.54 386.307 1950.57 582.203" stroke="#125B9B" stroke-opacity="0.2" stroke-width="5" stroke-miterlimit="10"/>
<path d="M-149.831 1420.49C34.8498 774.526 204.451 574.941 343.612 549.352C442.918 530.971 507.09 598.065 598.235 643.114C647.466 668.085 700.006 684.176 753.665 690.716C925.012 710.994 1007.54 617.376 1180.14 534.653C1223.36 513.687 1267.9 495.764 1313.47 480.993C1552.45 404.052 1863.86 384.978 1965.78 570.938" stroke="#125B9B" stroke-opacity="0.2" stroke-width="5" stroke-miterlimit="10"/>
<path d="M-127.296 1444.1C55.1599 808.104 224.528 608.219 363.249 571.957C461.345 546.876 527.383 611.201 617.74 652.281C667.405 675.539 719.773 690.955 773.155 698.031C942.444 719.709 1027.4 637.764 1201.21 557.28C1244.57 536.943 1288.95 519.032 1334.18 503.617C1573.35 422.877 1876.34 383.569 1981.16 559.676" stroke="#125B9B" stroke-opacity="0.2" stroke-width="5" stroke-miterlimit="10"/>
<path d="M-104.967 1467.77C75.3317 841.673 243.651 637.039 383.018 595.02C480.347 565.523 547.656 623.949 637.214 661.369C687.273 682.893 739.485 697.616 792.595 705.185C959.797 728.313 1047.21 658.125 1222.24 579.746C1262.98 561.562 1306.68 543.051 1354.82 526.037C1594.2 441.365 1888.84 382.291 1996.52 548.337" stroke="#125B9B" stroke-opacity="0.2" stroke-width="5" stroke-miterlimit="10"/>
<path d="M-82.6349 1491.44C95.7118 875.235 262.883 666.316 402.676 617.753C499.363 584.208 567.981 636.724 656.76 670.394C707.21 690.164 759.305 704.241 812.175 712.391C977.32 736.919 1067.08 678.381 1243.42 602.306C1284.47 584.581 1328.07 566.181 1375.66 548.543C1614.9 460.06 1901.33 380.968 2011.89 536.993" stroke="#125B9B" stroke-opacity="0.2" stroke-width="5" stroke-miterlimit="10"/>
<path d="M-60.2749 1515.05C116.002 908.772 282.094 695.508 422.419 640.685C518.434 603.143 588.518 649.538 676.138 679.588C726.918 697.601 778.892 711.047 831.508 719.784C994.635 745.703 1086.8 698.889 1264.34 624.835C1305.51 607.613 1349.15 589.204 1396.19 570.985C1635.83 478.347 1913.77 379.391 2027.21 525.48" stroke="#125B9B" stroke-opacity="0.2" stroke-width="5" stroke-miterlimit="10"/>
<path d="M-37.9402 1538.71C136.258 942.322 301.329 724.788 442.02 663.522C537.374 622.025 608.749 662.251 695.559 688.777C746.646 704.973 798.53 717.765 850.905 727.08C1011.94 754.408 1106.49 719.276 1285.37 647.653C1326.87 630.973 1370.38 612.549 1416.86 593.799C1656.62 497.07 1926.2 378.307 2042.59 514.4" stroke="#125B9B" stroke-opacity="0.2" stroke-width="5" stroke-miterlimit="10"/>
<path d="M-15.613 1562.38C156.555 975.903 320.634 754.049 461.809 686.312C556.549 640.893 629.234 674.857 715.08 697.895C764.424 711.12 814.868 724.312 870.45 734.338C1029.41 763.024 1126.39 739.658 1306.51 670.223C1348.24 654.062 1391.67 635.614 1437.69 616.306C1677.58 515.485 1938.83 376.907 2058.07 503.073" stroke="#125B9B" stroke-opacity="0.2" stroke-width="5" stroke-miterlimit="10"/>
<path d="M6.71829 1586.04C176.885 1009.61 339.689 783.454 481.494 709.17C575.611 659.787 649.705 687.378 734.566 707.021C784.644 718.62 835.051 731.114 889.922 741.613C1046.86 771.824 1146.16 760.023 1327.56 692.809C1369.55 677.209 1412.93 658.728 1458.29 638.865C1698.25 533.877 1951.24 375.559 2073.37 491.788" stroke="#125B9B" stroke-opacity="0.2" stroke-width="5" stroke-miterlimit="10"/>
<path d="M28.9762 1609.73C197.113 1043.03 359.188 812.806 501.184 732.031C594.707 678.81 670.171 699.86 754.067 716.192C804.899 726.072 855.239 737.92 909.251 748.968C1064.14 780.444 1165.79 780.512 1348.65 715.483C1390.91 700.35 1434.16 681.854 1478.99 661.493C1719.04 552.246 1963.73 374.196 2088.74 480.489" stroke="#125B9B" stroke-opacity="0.2" stroke-width="5" stroke-miterlimit="10"/>
<path d="M51.4226 1633.32C217.412 1076.57 378.436 842.303 520.906 754.839C613.865 697.73 690.649 712.206 773.512 725.287C825.088 733.406 875.459 744.672 928.877 756.167C1081.63 789.06 1185.76 800.792 1369.7 738.029C1413.94 722.385 1457.32 704.305 1499.68 683.859C1739.79 570.58 1976.35 372.888 2104.11 469.147" stroke="#125B9B" stroke-opacity="0.2" stroke-width="5" stroke-miterlimit="10"/>
<path d="M73.7502 1656.99C237.71 1110.15 397.956 871.602 540.462 777.683C632.865 716.727 710.99 724.536 793.033 734.405C845.344 740.722 895.668 751.425 948.344 763.443C1099.08 797.727 1205.57 821.192 1390.68 760.635C1435.02 745.636 1478.32 727.569 1520.3 706.546C1760.47 588.662 1988.72 371.55 2119.48 457.669" stroke="#125B9B" stroke-opacity="0.2" stroke-width="5" stroke-miterlimit="10"/>
<path d="M96.0745 1680.65C257.955 1143.7 417.539 901.195 560.286 800.465C652.076 735.763 731.542 736.729 812.464 743.499C865.5 747.972 915.805 758.238 967.77 770.728C1116.41 806.421 1225.33 841.559 1411.81 783.205C1456.24 768.796 1499.45 750.697 1541.05 729.071C1781.17 607.047 2001.2 370.228 2134.88 446.536" stroke="#125B9B" stroke-opacity="0.2" stroke-width="5" stroke-miterlimit="10"/>
<path d="M118.453 1704.31C278.303 1177.45 436.798 930.735 579.98 823.324C671.332 754.749 751.974 748.866 831.92 752.636C885.817 755.145 935.987 765 987.249 778.005C1133.81 815.013 1245.12 861.968 1432.89 805.836C1477.4 791.991 1520.53 773.858 1561.75 751.656C1801.85 625.265 2013.7 368.864 2150.26 435.236" stroke="#125B9B" stroke-opacity="0.2" stroke-width="5" stroke-miterlimit="10"/>
<path d="M140.775 1727.97C298.351 1210.87 456.291 960.305 599.723 846.301C690.579 773.954 772.377 761.137 851.454 762.016C905.969 762.749 956.296 772.038 1006.77 785.533C1151.29 824.026 1264.99 882.621 1453.97 828.593C1498.56 815.314 1541.62 797.144 1582.46 774.367C1822.53 643.567 2026.43 367.749 2165.66 424.104" stroke="#125B9B" stroke-opacity="0.2" stroke-width="5" stroke-miterlimit="10"/>
<path d="M163.115 1751.64C318.817 1244.41 475.842 989.864 619.379 868.992C709.806 792.813 792.702 772.988 870.891 770.891C926.054 769.443 976.392 778.598 1026.21 792.641C1168.63 832.542 1284.73 902.819 1475.02 851.096C1519.7 838.405 1562.68 820.194 1603.13 796.825C1843.1 661.498 2038.67 366.176 2181 412.634" stroke="#125B9B" stroke-opacity="0.2" stroke-width="5" stroke-miterlimit="10"/>
<path d="M185.471 1775.25C339.103 1277.95 495.427 1019.63 638.933 891.836C728.912 811.918 812.848 785.009 890.177 780.063C945.998 776.477 996.405 785.395 1045.45 799.836C1185.87 841.169 1304.36 923.171 1495.9 873.636C1540.66 861.487 1583.59 843.231 1623.67 819.311C1863.27 679.167 2051 364.889 2196.28 401.31" stroke="#125B9B" stroke-opacity="0.2" stroke-width="5" stroke-miterlimit="10"/>
<path d="M207.762 1798.92C453.721 1007.88 710.352 809.333 909.819 789.153C1127.56 767.118 1256.88 960.036 1517.12 896.229C1822.4 821.332 2038.54 359.007 2211.73 389.99" stroke="#125B9B" stroke-opacity="0.2" stroke-width="5" stroke-miterlimit="10"/>
</svg>
