<svg width="247" height="364" viewBox="0 0 247 364" fill="none" xmlns="http://www.w3.org/2000/svg">
<g clip-path="url(#clip0_4020_2668)">
<path d="M247.008 23.9473H47.3543C21.6257 23.9473 0.768494 44.8044 0.768494 70.5331V316.772C0.768494 342.501 21.6257 363.358 47.3543 363.358H200.422C226.151 363.358 247.008 342.501 247.008 316.772V23.9473Z" fill="#BB1F2F"/>
<path d="M242.632 11.6962L247.008 23.9472H112.242V14.8555C112.242 11.0891 113.738 7.477 116.401 4.81374C119.064 2.15049 122.677 0.654297 126.443 0.654297H226.964C233.995 0.654297 240.268 5.07448 242.632 11.6962Z" fill="#BB1F2F"/>
<path d="M92.3962 55.8008L3.75 76.919V105.579L92.3962 117.647H261.442V55.8008H92.3962Z" fill="black" fill-opacity="0.1"/>
</g>
<defs>
<clipPath id="clip0_4020_2668">
<rect width="246.239" height="362.704" fill="white" transform="matrix(-1 0 0 1 247.008 0.654297)"/>
</clipPath>
</defs>
</svg>
