<svg width="19" height="17" viewBox="0 0 19 17" fill="none" xmlns="http://www.w3.org/2000/svg">
<path d="M8.96405 6.23958C9.13375 6.3023 9.30024 6.14878 9.24398 5.98544C8.85789 4.86421 7.45999 4.44595 6.16049 5.4407C5.47693 5.96402 5.22006 6.07521 5.21358 6.07802C5.66422 6.50262 6.17904 7.92743 7.30256 8.08501C8.54022 8.29647 9.63561 7.14896 8.73942 6.62386C8.15003 6.27856 7.45609 6.07798 6.71225 6.07798C7.49207 5.91233 8.27055 5.98336 8.96405 6.23958Z" fill="white"/>
<path d="M14.5684 5.44061C12.3252 3.72348 10.8946 6.43142 11.7839 6.16299C12.4154 5.97235 13.1059 5.93082 13.7984 6.07793C12.625 6.07793 11.5433 6.58471 10.8221 7.4096C10.8814 6.11327 10.971 5.30185 11.0748 4.69825C11.6742 4.67883 12.4731 4.22268 12.9118 3.42448C13.6682 2.14886 13.3175 0.840932 13.2046 0.015625C12.6136 0.55798 10.0319 -0.077517 9.00846 1.57522C8.55637 2.3053 8.68776 3.19371 9.16335 3.84385C9.3139 4.04966 9.67386 3.95091 9.68413 3.70114C9.72879 2.61461 10.3026 1.7937 11.3723 1.33903C10.8923 1.92515 10.5771 2.58135 10.4143 3.25959C10.1612 4.31612 9.89689 5.00919 9.79982 8.37667C9.78996 8.71818 10.0835 9.00086 10.446 8.99658C10.7085 8.99347 10.9332 8.83654 11.0342 8.60824C11.1877 8.261 11.4375 7.90163 11.844 7.57237C12.2303 7.97479 12.8182 8.18891 13.4265 8.08496C14.5452 7.92806 15.0673 6.50014 15.5154 6.07789C15.5088 6.07516 15.2519 5.96397 14.5684 5.44061Z" fill="white"/>
<path d="M17.866 9.63646C17.1647 9.18809 16.4015 9.5076 16.051 9.69832L11.6523 12.7323L9.07679 12.7328L8.43291 12.126H10.7982C11.5096 12.126 12.3062 11.6893 12.3062 10.9122C12.3062 10.087 11.5096 9.69832 10.7982 9.69832H9.91182C9.25338 9.69832 8.4839 9.75365 7.94135 9.47995C7.42589 9.23276 6.83231 9.0921 6.1987 9.0921C5.13473 9.0921 4.18247 9.49182 3.52994 10.1222L0.0625 13.339L3.92577 16.9798L5.21352 15.1594H11.2988C11.9478 15.1594 12.5743 14.9351 13.0594 14.5289L17.91 10.4681C18.1797 10.2424 18.1644 9.82734 17.866 9.63646Z" fill="white"/>
</svg>
