<svg width="16" height="15" viewBox="0 0 16 15" fill="none" xmlns="http://www.w3.org/2000/svg">
<path d="M8.02703 12.5977H8.90784V15H8.02703V12.5977Z" fill="white"/>
<path d="M6.26539 12.5977H7.14621V15H6.26539V12.5977Z" fill="white"/>
<path d="M10.552 0H4.6212C4.37798 0 4.18079 0.196758 4.18079 0.439453V15H5.38457V12.1582C5.38457 11.9155 5.58176 11.7188 5.82498 11.7188H9.34825C9.59147 11.7188 9.78866 11.9155 9.78866 12.1582V15H10.9924V0.439453C10.9924 0.196758 10.7953 0 10.552 0ZM6.26539 10.4004C6.26539 10.6431 6.06821 10.8398 5.82498 10.8398C5.58176 10.8398 5.38457 10.6431 5.38457 10.4004V9.52148C5.38457 9.27879 5.58176 9.08203 5.82498 9.08203C6.06821 9.08203 6.26539 9.27879 6.26539 9.52148V10.4004ZM6.26539 7.76367C6.26539 8.00637 6.06821 8.20312 5.82498 8.20312C5.58176 8.20312 5.38457 8.00637 5.38457 7.76367V6.88477C5.38457 6.64207 5.58176 6.44531 5.82498 6.44531C6.06821 6.44531 6.26539 6.64207 6.26539 6.88477V7.76367ZM8.02703 10.4004C8.02703 10.6431 7.82984 10.8398 7.58662 10.8398C7.34339 10.8398 7.14621 10.6431 7.14621 10.4004V9.52148C7.14621 9.27879 7.34339 9.08203 7.58662 9.08203C7.82984 9.08203 8.02703 9.27879 8.02703 9.52148V10.4004ZM8.02703 7.76367C8.02703 8.00637 7.82984 8.20312 7.58662 8.20312C7.34339 8.20312 7.14621 8.00637 7.14621 7.76367V6.88477C7.14621 6.64207 7.34339 6.44531 7.58662 6.44531C7.82984 6.44531 8.02703 6.64207 8.02703 6.88477V7.76367ZM9.78866 10.4004C9.78866 10.6431 9.59147 10.8398 9.34825 10.8398C9.10503 10.8398 8.90784 10.6431 8.90784 10.4004V9.52148C8.90784 9.27879 9.10503 9.08203 9.34825 9.08203C9.59147 9.08203 9.78866 9.27879 9.78866 9.52148V10.4004ZM9.78866 7.76367C9.78866 8.00637 9.59147 8.20312 9.34825 8.20312C9.10503 8.20312 8.90784 8.00637 8.90784 7.76367V6.88477C8.90784 6.64207 9.10503 6.44531 9.34825 6.44531C9.59147 6.44531 9.78866 6.64207 9.78866 6.88477V7.76367ZM6.26539 5.12695C6.26539 5.36965 6.06821 5.56641 5.82498 5.56641C5.58176 5.56641 5.38457 5.36965 5.38457 5.12695V4.24805C5.38457 4.00535 5.58176 3.80859 5.82498 3.80859C6.06821 3.80859 6.26539 4.00535 6.26539 4.24805V5.12695ZM8.02703 5.12695C8.02703 5.36965 7.82984 5.56641 7.58662 5.56641C7.34339 5.56641 7.14621 5.36965 7.14621 5.12695V4.24805C7.14621 4.00535 7.34339 3.80859 7.58662 3.80859C7.82984 3.80859 8.02703 4.00535 8.02703 4.24805V5.12695ZM9.78866 5.12695C9.78866 5.36965 9.59147 5.56641 9.34825 5.56641C9.10503 5.56641 8.90784 5.36965 8.90784 5.12695V4.24805C8.90784 4.00535 9.10503 3.80859 9.34825 3.80859C9.59147 3.80859 9.78866 4.00535 9.78866 4.24805V5.12695ZM6.26539 2.49023C6.26539 2.73293 6.06821 2.92969 5.82498 2.92969C5.58176 2.92969 5.38457 2.73293 5.38457 2.49023V1.61133C5.38457 1.36863 5.58176 1.17188 5.82498 1.17188C6.06821 1.17188 6.26539 1.36863 6.26539 1.61133V2.49023ZM8.02703 2.49023C8.02703 2.73293 7.82984 2.92969 7.58662 2.92969C7.34339 2.92969 7.14621 2.73293 7.14621 2.49023V1.61133C7.14621 1.36863 7.34339 1.17188 7.58662 1.17188C7.82984 1.17188 8.02703 1.36863 8.02703 1.61133V2.49023ZM9.78866 2.49023C9.78866 2.73293 9.59147 2.92969 9.34825 2.92969C9.10503 2.92969 8.90784 2.73293 8.90784 2.49023V1.61133C8.90784 1.36863 9.10503 1.17188 9.34825 1.17188C9.59147 1.17188 9.78866 1.36863 9.78866 1.61133V2.49023Z" fill="white"/>
<path d="M14.6625 5.85938H11.8733V15H14.6625C14.9057 15 15.1029 14.8032 15.1029 14.5605V6.29883C15.1029 6.05613 14.9057 5.85938 14.6625 5.85938ZM13.9285 11.5723C13.9285 11.815 13.7313 12.0117 13.4881 12.0117C13.2449 12.0117 13.0477 11.815 13.0477 11.5723V10.6934C13.0477 10.4507 13.2449 10.2539 13.4881 10.2539C13.7313 10.2539 13.9285 10.4507 13.9285 10.6934V11.5723ZM13.9285 8.93555C13.9285 9.17824 13.7313 9.375 13.4881 9.375C13.2449 9.375 13.0477 9.17824 13.0477 8.93555V8.05664C13.0477 7.81395 13.2449 7.61719 13.4881 7.61719C13.7313 7.61719 13.9285 7.81395 13.9285 8.05664V8.93555Z" fill="white"/>
<path d="M0.510721 5.85938C0.267498 5.85938 0.0703125 6.05613 0.0703125 6.29883V14.5605C0.0703125 14.8032 0.267498 15 0.510721 15H3.29997V5.85938H0.510721ZM2.12555 11.5723C2.12555 11.815 1.92837 12.0117 1.68514 12.0117C1.44192 12.0117 1.24474 11.815 1.24474 11.5723V10.6934C1.24474 10.4507 1.44192 10.2539 1.68514 10.2539C1.92837 10.2539 2.12555 10.4507 2.12555 10.6934V11.5723ZM2.12555 8.93555C2.12555 9.17824 1.92837 9.375 1.68514 9.375C1.44192 9.375 1.24474 9.17824 1.24474 8.93555V8.05664C1.24474 7.81395 1.44192 7.61719 1.68514 7.61719C1.92837 7.61719 2.12555 7.81395 2.12555 8.05664V8.93555Z" fill="white"/>
</svg>
