<svg width="19" height="14" viewBox="0 0 19 14" fill="none" xmlns="http://www.w3.org/2000/svg">
<path d="M17.8982 12.4416C17.6197 12.2485 17.3746 12.0113 17.1726 11.7395C16.6888 11.191 16.0731 10.5108 14.9297 10.5108C13.7863 10.5108 13.1926 11.169 12.6868 11.7615C12.1811 12.3539 11.8513 12.7049 11.1037 12.7049C10.3561 12.7049 9.98224 12.288 9.52049 11.7615C9.05875 11.2349 8.44304 10.5108 7.27763 10.5108C6.11222 10.5108 5.54054 11.169 5.03477 11.7615C4.52904 12.3539 4.1992 12.7049 3.4516 12.7049C2.70399 12.7049 2.33017 12.288 1.86842 11.7615C1.55453 11.3478 1.1576 11.0041 0.70301 10.7522C0.484406 10.6431 0.218621 10.7315 0.109319 10.9497C1.72816e-05 11.1678 0.0886121 11.433 0.307216 11.5421C0.652463 11.7497 0.957767 12.0172 1.20874 12.3319C1.71446 12.9243 2.30816 13.5826 3.4516 13.5826C4.59504 13.5826 5.18869 12.9244 5.69446 12.3319C6.20018 11.7395 6.53003 11.3885 7.27763 11.3885C8.02524 11.3885 8.39906 11.8054 8.86081 12.3319C9.32255 12.8585 9.93825 13.5826 11.1037 13.5826C12.2691 13.5826 12.8408 12.9244 13.3465 12.3319C13.8523 11.7395 14.1821 11.3885 14.9297 11.3885C15.6773 11.3885 16.0511 11.8054 16.5129 12.3319C16.7691 12.6603 17.073 12.9486 17.4144 13.1876C17.6208 13.3209 17.8965 13.262 18.0301 13.0559C18.1637 12.85 18.1047 12.5749 17.8982 12.4416Z" fill="white"/>
<path d="M17.8982 9.15048C17.6197 8.95734 17.3746 8.72019 17.1726 8.44838C16.6888 7.89987 16.0731 7.21969 14.9297 7.21969C13.7863 7.21969 13.1926 7.8779 12.6868 8.47035C12.1811 9.06275 11.8513 9.4138 11.1037 9.4138C10.3561 9.4138 9.98224 8.9969 9.52049 8.47035C9.05875 7.94375 8.44304 7.21969 7.27763 7.21969C6.11222 7.21969 5.54054 7.8779 5.03477 8.47035C4.52904 9.06275 4.1992 9.4138 3.4516 9.4138C2.70399 9.4138 2.33017 8.9969 1.86842 8.47035C1.55453 8.05668 1.1576 7.71294 0.70301 7.46104C0.484406 7.35198 0.218621 7.44038 0.109319 7.65851C1.72816e-05 7.87664 0.0886121 8.14185 0.307216 8.25092C0.652463 8.45855 0.957767 8.72606 1.20874 9.04079C1.71446 9.63319 2.30816 10.2914 3.4516 10.2914C4.59504 10.2914 5.18869 9.63323 5.69446 9.04079C6.20018 8.44838 6.53003 8.09733 7.27763 8.09733C8.02524 8.09733 8.39906 8.51423 8.86081 9.04079C9.32255 9.56738 9.93825 10.2914 11.1037 10.2914C12.2691 10.2914 12.8408 9.63323 13.3465 9.04079C13.8523 8.44838 14.1821 8.09733 14.9297 8.09733C15.6773 8.09733 16.0511 8.51423 16.5129 9.04079C16.7691 9.36912 17.073 9.65751 17.4144 9.89647C17.6208 10.0298 17.8965 9.97084 18.0301 9.76481C18.1637 9.55886 18.1047 9.28378 17.8982 9.15048Z" fill="white"/>
<path d="M17.8982 5.63981C17.6197 5.44667 17.3746 5.20951 17.1726 4.93771C16.6888 4.38919 16.0731 3.70902 14.9297 3.70902C13.7863 3.70902 13.1926 4.36723 12.6868 4.95968C12.1811 5.55212 11.8513 5.90313 11.1037 5.90313C10.3561 5.90313 9.98224 5.48623 9.52049 4.95968C9.05875 4.43312 8.44304 3.70902 7.27763 3.70902C6.11222 3.70902 5.54054 4.36723 5.03477 4.95968C4.52904 5.55208 4.1992 5.90313 3.4516 5.90313C2.70399 5.90313 2.33017 5.48623 1.86842 4.95968C1.55453 4.54601 1.1576 4.20227 0.70301 3.95037C0.484406 3.84131 0.218621 3.92971 0.109319 4.14784C1.72816e-05 4.36597 0.0886121 4.63118 0.307216 4.74024C0.652463 4.94787 0.957767 5.21539 1.20874 5.53011C1.71446 6.12252 2.30816 6.78077 3.4516 6.78077C4.59504 6.78077 5.18869 6.12256 5.69446 5.53011C6.20018 4.93771 6.53003 4.58666 7.27763 4.58666C8.02524 4.58666 8.39906 5.00356 8.86081 5.53011C9.32255 6.05667 9.93825 6.78077 11.1037 6.78077C12.2691 6.78077 12.8408 6.12256 13.3465 5.53011C13.8523 4.93767 14.1821 4.58666 14.9297 4.58666C15.6773 4.58666 16.0511 5.00356 16.5129 5.53011C16.7691 5.85844 17.073 6.14683 17.4144 6.38579C17.6208 6.51909 17.8965 6.46017 18.0301 6.25413C18.1637 6.04818 18.1047 5.77311 17.8982 5.63981Z" fill="white"/>
<path d="M0.307389 1.44919C0.652635 1.65682 0.95794 1.92434 1.20891 2.23906C1.71464 2.83147 2.30833 3.48972 3.45177 3.48972C4.59521 3.48972 5.18886 2.83151 5.69463 2.23906C6.20036 1.64666 6.5302 1.29561 7.2778 1.29561C8.02541 1.29561 8.39924 1.71251 8.86098 2.23906C9.32273 2.76566 9.93843 3.48972 11.1038 3.48972C12.2693 3.48972 12.8409 2.83151 13.3467 2.23906C13.8524 1.64666 14.1823 1.29561 14.9299 1.29561C15.6775 1.29561 16.0513 1.71251 16.5131 2.23906C16.7693 2.56739 17.0732 2.85578 17.4146 3.09478C17.621 3.22808 17.8967 3.16912 18.0303 2.96312C18.1639 2.75713 18.1048 2.48206 17.8983 2.34876C17.6198 2.15562 17.3748 1.91846 17.1727 1.64666C16.6889 1.09814 16.0733 0.417969 14.9298 0.417969C13.7864 0.417969 13.1927 1.07618 12.687 1.66862C12.1812 2.26103 11.8514 2.61208 11.1038 2.61208C10.3562 2.61208 9.98237 2.19518 9.52062 1.66862C9.05888 1.14203 8.44317 0.417969 7.27776 0.417969C6.11235 0.417969 5.54067 1.07618 5.0349 1.66862C4.52918 2.26103 4.19933 2.61208 3.45173 2.61208C2.70412 2.61208 2.33038 2.19518 1.86859 1.66858C1.5547 1.25492 1.15777 0.911176 0.703183 0.659281C0.484579 0.550216 0.218794 0.638618 0.109492 0.856748C0.000189871 1.07488 0.0888268 1.34013 0.307389 1.44919Z" fill="white"/>
</svg>
