<svg width="247" height="364" viewBox="0 0 247 364" fill="none" xmlns="http://www.w3.org/2000/svg">
<path d="M-0.0078125 23.9473H199.646C225.374 23.9473 246.232 44.8044 246.232 70.5331V316.772C246.232 342.501 225.374 363.358 199.646 363.358H46.578C20.8494 363.358 -0.0078125 342.501 -0.0078125 316.772V23.9473Z" fill="#FECB02"/>
<path d="M4.36755 11.6962L-0.0078125 23.9472H134.758V14.8555C134.758 11.0891 133.262 7.477 130.599 4.81374C127.936 2.15049 124.323 0.654297 120.557 0.654297H20.0361C13.0047 0.654297 6.73245 5.07448 4.36755 11.6962Z" fill="#FECB02"/>
<path d="M78.6636 77.1875L-0.0078125 122.11V137.084L78.6636 93.8253L222.895 137.084L282.835 112.127V102.144L228.514 122.11L78.6636 77.1875Z" fill="white" fill-opacity="0.29"/>
<path d="M75.5399 107.137L-13.3125 164.537V183.671L75.5399 128.396L238.436 183.671L306.133 151.781V139.026L244.783 164.537L75.5399 107.137Z" fill="white" fill-opacity="0.29"/>
</svg>
